<svg width="24" height="24" viewBox="0 0 24 24" fill="none" xmlns="http://www.w3.org/2000/svg">
  <path d="M12 2C6.48 2 2 6.48 2 12C2 17.52 6.48 22 12 22C17.52 22 22 17.52 22 12C22 6.48 17.52 2 12 2ZM12 20C7.59 20 4 16.41 4 12C4 7.59 7.59 4 12 4C16.41 4 20 7.59 20 12C20 16.41 16.41 20 12 20Z" fill="currentColor"/>
  <path d="M12 6C11.45 6 11 6.45 11 7V12C11 12.55 11.45 13 12 13C12.55 13 13 12.55 13 12V7C13 6.45 12.55 6 12 6Z" fill="currentColor"/>
  <circle cx="12" cy="16" r="1" fill="currentColor"/>
</svg>
