<svg width="24" height="24" viewBox="0 0 24 24" fill="none" xmlns="http://www.w3.org/2000/svg">
<path d="M21.4349 11.5H21.0549V8.12C21.0534 7.69083 20.8822 7.2797 20.5787 6.97623C20.2752 6.67276 19.8641 6.50158 19.4349 6.5H18.8049V6.12C18.8049 5.68902 18.6337 5.27569 18.329 4.97095C18.0242 4.6662 17.6109 4.495 17.1799 4.495C16.749 4.495 16.3356 4.6662 16.0309 4.97095C15.7261 5.27569 15.5549 5.68902 15.5549 6.12V11.5H8.44494V6.12C8.44494 5.68902 8.27374 5.27569 7.96899 4.97095C7.66424 4.6662 7.25092 4.495 6.81994 4.495C6.38896 4.495 5.97564 4.6662 5.67089 4.97095C5.36615 5.27569 5.19494 5.68902 5.19494 6.12V6.5H4.56494C4.13529 6.5 3.72324 6.67067 3.41943 6.97448C3.11562 7.27829 2.94494 7.69034 2.94494 8.12V11.5H2.56494C2.43233 11.5 2.30516 11.5527 2.21139 11.6464C2.11762 11.7402 2.06494 11.8674 2.06494 12C2.06494 12.1326 2.11762 12.2598 2.21139 12.3535C2.30516 12.4473 2.43233 12.5 2.56494 12.5H2.94494V15.87C2.94362 16.0836 2.98455 16.2953 3.06537 16.493C3.1462 16.6907 3.26532 16.8705 3.41588 17.022C3.56644 17.1735 3.74547 17.2937 3.94268 17.3757C4.13988 17.4578 4.35136 17.5 4.56494 17.5H5.19994V17.87C5.19994 18.301 5.37115 18.7143 5.67589 19.019C5.98064 19.3238 6.39396 19.495 6.82494 19.495C7.25592 19.495 7.66924 19.3238 7.97399 19.019C8.27874 18.7143 8.44994 18.301 8.44994 17.87V12.5H15.5599V17.87C15.5599 18.301 15.7311 18.7143 16.0359 19.019C16.3406 19.3238 16.754 19.495 17.1849 19.495C17.6159 19.495 18.0292 19.3238 18.334 19.019C18.6387 18.7143 18.8099 18.301 18.8099 17.87V17.5H19.4399C19.8705 17.4974 20.2825 17.3245 20.5861 17.0191C20.8896 16.7137 21.0599 16.3006 21.0599 15.87V12.5H21.4399C21.5725 12.5 21.6997 12.4473 21.7935 12.3535C21.8873 12.2598 21.9399 12.1326 21.9399 12C21.9399 11.8674 21.8873 11.7402 21.7935 11.6464C21.6997 11.5527 21.5725 11.5 21.4399 11.5H21.4349ZM5.19994 16.5H4.56994C4.48786 16.4993 4.40672 16.4825 4.33114 16.4505C4.25556 16.4185 4.18703 16.3719 4.12946 16.3134C4.07189 16.2549 4.0264 16.1856 3.9956 16.1096C3.9648 16.0335 3.94928 15.9521 3.94994 15.87V8.12C3.95073 7.9558 4.0163 7.79856 4.13241 7.68246C4.24851 7.56636 4.40575 7.50078 4.56994 7.5H5.19994V16.5ZM7.44994 17.87C7.44889 18.0368 7.38218 18.1964 7.26426 18.3143C7.14634 18.4322 6.9867 18.4989 6.81994 18.5C6.73786 18.4993 6.65672 18.4825 6.58114 18.4505C6.50556 18.4185 6.43703 18.3719 6.37946 18.3134C6.32189 18.2549 6.2764 18.1856 6.2456 18.1096C6.2148 18.0335 6.19928 17.9521 6.19994 17.87V6.12C6.20073 5.9558 6.2663 5.79856 6.38241 5.68246C6.49851 5.56636 6.65575 5.50078 6.81994 5.5C6.98531 5.49997 7.14406 5.56497 7.26192 5.68097C7.37978 5.79696 7.44732 5.95465 7.44994 6.12V17.87ZM17.8099 17.87C17.8099 18.0358 17.7441 18.1947 17.6269 18.3119C17.5097 18.4291 17.3507 18.495 17.1849 18.495C17.0192 18.495 16.8602 18.4291 16.743 18.3119C16.6258 18.1947 16.5599 18.0358 16.5599 17.87V6.12C16.5599 5.95423 16.6258 5.79526 16.743 5.67805C16.8602 5.56084 17.0192 5.495 17.1849 5.495C17.3507 5.495 17.5097 5.56084 17.6269 5.67805C17.7441 5.79526 17.8099 5.95423 17.8099 6.12V17.87ZM20.0599 15.87C20.0606 15.9521 20.0451 16.0335 20.0143 16.1096C19.9835 16.1856 19.938 16.2549 19.8804 16.3134C19.8229 16.3719 19.7543 16.4185 19.6787 16.4505C19.6032 16.4825 19.522 16.4993 19.4399 16.5H18.8099V7.5H19.4399C19.6041 7.50078 19.7614 7.56636 19.8775 7.68246C19.9936 7.79856 20.0592 7.9558 20.0599 8.12V15.87Z" fill="white"/>
</svg>
