<svg width="24" height="25" viewBox="0 0 24 25" fill="none" xmlns="http://www.w3.org/2000/svg">
<path d="M7.01408 16.503H11.0141M7.01408 11.505H15.0141M10.0141 22.5H11.0141M7.51008 22.5C6.34008 22.475 5.54008 22.4 4.76408 22.175C3.71408 21.9 2.94908 20.975 2.72408 19.676C2.43908 18.452 2.53908 15.429 2.51408 11.83C2.51608 9.039 2.38908 6.358 2.83908 4.834C3.11408 4.334 3.33908 2.51 7.06408 2.534C7.68908 2.51 14.3141 2.46 15.3641 2.56C18.8641 2.635 19.2141 4.434 19.4141 6.133C19.5411 7.383 19.5141 9.381 19.5141 11.505M7.01408 2.51C7.31408 4.134 7.28908 5.184 8.38908 5.433C8.86408 5.508 9.94908 5.506 11.1141 5.508C12.1541 5.51 13.2141 5.52 13.6891 5.408C14.8641 5.134 14.7391 3.684 15.0391 2.51M18.2791 14.879C16.9041 16.279 14.2561 18.777 14.2561 18.952C14.0431 19.249 13.8561 19.852 13.7321 20.702C13.5751 21.489 13.3871 22.175 13.6071 22.375C13.8271 22.575 14.6541 22.407 15.5301 22.225C16.2301 22.15 16.8801 21.9 17.2041 21.651C17.6791 21.231 20.9021 17.977 21.2761 17.553C21.5511 17.178 21.5761 16.478 21.3361 16.053C21.2021 15.753 20.3521 14.953 20.0771 14.729C19.8006 14.5585 19.4767 14.481 19.1529 14.508C18.8291 14.535 18.5235 14.665 18.2791 14.879Z" stroke="white" stroke-width="1.5" stroke-linecap="round" stroke-linejoin="round"/>
</svg>
