<svg width="46" height="48" viewBox="0 0 46 48" fill="none" xmlns="http://www.w3.org/2000/svg">
<path d="M45.47 13.6499V37.6439C45.455 37.9347 45.3712 38.2177 45.2255 38.4698C45.0798 38.7219 44.8764 38.9358 44.632 39.0939L43.846 39.5639C39.924 41.8339 36.472 43.8319 32.984 45.8439V19.8959L10.518 6.90794C14.406 4.67594 18.28 2.42194 22.172 0.199943C22.4316 0.0691216 22.7182 0.000976562 23.009 0.000976562C23.2997 0.000976563 23.5863 0.0691216 23.846 0.199943L45.466 12.6859V13.6499H45.47ZM27.988 22.7739C22.86 19.8089 17.7307 16.8462 12.6 13.8859C12.3399 13.7566 12.0534 13.6893 11.763 13.6893C11.4725 13.6893 11.186 13.7566 10.926 13.8859C7.45929 15.8859 3.99329 17.8886 0.527954 19.8939L16.754 29.2619V47.9999C20.218 46.0019 23.674 43.9879 27.148 42.0099C27.391 41.8508 27.5934 41.6369 27.7389 41.3855C27.8845 41.134 27.9691 40.852 27.986 40.5619L27.988 22.7739ZM0.529954 38.6339L11.756 45.1159V32.1399L0.529954 38.6339Z" fill="black"/>
</svg>
