<svg width="24" height="24" viewBox="0 0 24 24" fill="none" xmlns="http://www.w3.org/2000/svg">
<path fill-rule="evenodd" clip-rule="evenodd" d="M20.5299 4.53009C20.6624 4.38792 20.7345 4.19987 20.7311 4.00557C20.7277 3.81127 20.6489 3.62588 20.5115 3.48847C20.3741 3.35106 20.1887 3.27234 19.9944 3.26892C19.8001 3.26549 19.6121 3.33761 19.4699 3.47009L3.46991 19.4701C3.39622 19.5388 3.33712 19.6216 3.29613 19.7136C3.25514 19.8056 3.23309 19.9049 3.23132 20.0056C3.22954 20.1063 3.24807 20.2063 3.28579 20.2997C3.32351 20.3931 3.37965 20.4779 3.45087 20.5491C3.52209 20.6203 3.60692 20.6765 3.70031 20.7142C3.7937 20.7519 3.89373 20.7705 3.99443 20.7687C4.09513 20.7669 4.19445 20.7449 4.28645 20.7039C4.37845 20.6629 4.46125 20.6038 4.52991 20.5301L7.56491 17.4951C8.88291 18.1031 10.3919 18.5001 11.9999 18.5001C14.6179 18.5001 16.9719 17.4491 18.6679 16.1471C19.5179 15.4951 20.2149 14.7711 20.7029 14.0671C21.1829 13.3751 21.4999 12.6491 21.4999 12.0001C21.4999 11.3511 21.1829 10.6251 20.7029 9.93409C20.2149 9.22909 19.5179 8.50509 18.6679 7.85409C18.3972 7.64542 18.1106 7.44509 17.8079 7.25309L20.5299 4.53009ZM15.1299 9.93209L14.0299 11.0301C14.2304 11.45 14.2959 11.9217 14.2172 12.3802C14.1385 12.8388 13.9196 13.2617 13.5906 13.5908C13.2616 13.9198 12.8386 14.1387 12.3801 14.2174C11.9215 14.296 11.4498 14.2306 11.0299 14.0301L9.92991 15.1301C10.651 15.6076 11.515 15.8211 12.3756 15.7345C13.2361 15.6479 14.0403 15.2665 14.6518 14.655C15.2634 14.0434 15.6447 13.2393 15.7313 12.3788C15.8179 11.5182 15.6044 10.6542 15.1269 9.93309" fill="white"/>
<path d="M12.67 8.31C12.7111 8.31771 12.7535 8.31537 12.7936 8.30318C12.8336 8.29099 12.8701 8.26932 12.9 8.24L14.85 6.29C14.8803 6.26019 14.9023 6.22294 14.9137 6.18198C14.9251 6.14102 14.9256 6.09779 14.915 6.05659C14.9045 6.0154 14.8834 5.97769 14.8537 5.94722C14.824 5.91676 14.7869 5.89462 14.746 5.883C13.8524 5.63094 12.9285 5.50209 12 5.5C9.382 5.5 7.028 6.551 5.332 7.853C4.482 8.505 3.785 9.229 3.296 9.933C2.816 10.625 2.5 11.351 2.5 12C2.5 12.649 2.817 13.375 3.296 14.066C3.77198 14.7338 4.33419 15.3357 4.968 15.856C5.01544 15.8952 5.07584 15.9152 5.13731 15.9121C5.19877 15.9089 5.25682 15.8828 5.3 15.839L8.24 12.899C8.26932 12.8691 8.29099 12.8326 8.30318 12.7926C8.31537 12.7525 8.31771 12.7101 8.31 12.669C8.27 12.4523 8.25 12.2293 8.25 12C8.24995 11.4508 8.37055 10.9082 8.60326 10.4107C8.83598 9.91325 9.17513 9.47295 9.59675 9.12097C10.0184 8.76898 10.5122 8.51391 11.0432 8.37378C11.5743 8.23364 12.1296 8.21187 12.67 8.31Z" fill="white"/>
</svg>
