<svg width="20" height="20" viewBox="0 0 20 20" fill="none" xmlns="http://www.w3.org/2000/svg">
<path d="M11.4041 4.375H11.4291C11.5948 4.375 11.7538 4.44085 11.871 4.55806C11.9882 4.67527 12.0541 4.83424 12.0541 5C12.0541 5.16576 11.9882 5.32473 11.871 5.44194C11.7538 5.55915 11.5948 5.625 11.4291 5.625C10.3524 5.625 9.53322 5.625 8.88072 5.6775C8.22655 5.73 7.81155 5.83 7.51738 5.98667C6.90808 6.3169 6.4189 6.83146 6.11988 7.45667C5.96155 7.785 5.86655 8.19 5.81738 8.82167C5.76738 9.45833 5.76738 10.27 5.76738 11.4V11.4917L6.70072 10.5583C6.8192 10.4479 6.9759 10.3878 7.13782 10.3907C7.29974 10.3935 7.45422 10.4591 7.56874 10.5736C7.68325 10.6882 7.74884 10.8426 7.7517 11.0046C7.75455 11.1665 7.69445 11.3232 7.58405 11.4417L5.58405 13.4417C5.52417 13.5015 5.45276 13.5486 5.37414 13.58C5.29553 13.6114 5.21136 13.6265 5.12673 13.6244C5.0421 13.6223 4.95878 13.603 4.88183 13.5677C4.80487 13.5324 4.73588 13.4819 4.67905 13.4192L2.86988 11.4192C2.76358 11.2956 2.70978 11.1353 2.71997 10.9726C2.73017 10.8098 2.80355 10.6575 2.92445 10.5482C3.04536 10.4388 3.20422 10.381 3.36715 10.3871C3.53007 10.3932 3.68417 10.4627 3.79655 10.5808L4.51738 11.3775V11.3733C4.51738 10.2758 4.51738 9.415 4.57155 8.72417C4.62655 8.02083 4.73988 7.43917 4.99572 6.91083C5.41 6.04857 6.08644 5.33947 6.92822 4.885C7.44905 4.60583 8.06988 4.48833 8.78155 4.43167C9.48988 4.375 10.3574 4.375 11.4041 4.375ZM14.8724 6.375C14.9572 6.37709 15.0406 6.39642 15.1177 6.43181C15.1948 6.4672 15.2639 6.5179 15.3207 6.58083L17.1299 8.58083C17.2362 8.70445 17.29 8.86471 17.2798 9.02744C17.2696 9.19016 17.1962 9.34245 17.0753 9.45184C16.9544 9.56122 16.7955 9.61902 16.6326 9.61292C16.4697 9.60682 16.3156 9.53729 16.2032 9.41917L15.4824 8.6225V8.62667C15.4824 9.72417 15.4824 10.585 15.4282 11.2758C15.3732 11.9792 15.2607 12.5608 15.004 13.0892C14.5898 13.9514 13.9133 14.6605 13.0716 15.115C12.5507 15.3942 11.9299 15.5117 11.2182 15.5683C10.5099 15.625 9.64238 15.625 8.59655 15.625H8.57155C8.40579 15.625 8.24682 15.5592 8.12961 15.4419C8.0124 15.3247 7.94655 15.1658 7.94655 15C7.94655 14.8342 8.0124 14.6753 8.12961 14.5581C8.24682 14.4408 8.40579 14.375 8.57155 14.375C9.64738 14.375 10.4666 14.375 11.1191 14.3225C11.7732 14.27 12.1882 14.17 12.4824 14.0125C13.0916 13.6825 13.5807 13.1682 13.8799 12.5433C14.0382 12.215 14.1332 11.81 14.1824 11.1783C14.2324 10.5417 14.2324 9.73 14.2324 8.6V8.50833L13.2991 9.44167C13.1806 9.55207 13.0239 9.61217 12.8619 9.60931C12.7 9.60646 12.5455 9.54086 12.431 9.42635C12.3165 9.31184 12.2509 9.15735 12.2481 8.99544C12.2452 8.83352 12.3053 8.67681 12.4157 8.55833L14.4157 6.55833C14.4755 6.49846 14.5468 6.45134 14.6252 6.41983C14.7037 6.38832 14.7878 6.37307 14.8724 6.375Z" fill="white"/>
</svg>
