<svg width="20" height="20" viewBox="0 0 20 20" fill="none" xmlns="http://www.w3.org/2000/svg">
<path d="M11.9108 1.91074C12.067 1.75451 12.2789 1.66675 12.4999 1.66675C12.7209 1.66675 12.9328 1.75451 13.0891 1.91074L16.4224 5.24407C16.5786 5.40034 16.6664 5.61227 16.6664 5.83324C16.6664 6.05421 16.5786 6.26613 16.4224 6.4224L13.0891 9.75574C12.9319 9.90753 12.7214 9.99153 12.5029 9.98963C12.2844 9.98773 12.0754 9.90009 11.9209 9.74558C11.7664 9.59108 11.6788 9.38207 11.6769 9.16357C11.675 8.94507 11.759 8.73457 11.9108 8.5774L13.8216 6.66657H4.16659C3.94557 6.66657 3.73361 6.57877 3.57733 6.42249C3.42105 6.26621 3.33325 6.05425 3.33325 5.83324C3.33325 5.61222 3.42105 5.40026 3.57733 5.24398C3.73361 5.0877 3.94557 4.9999 4.16659 4.9999H13.8216L11.9108 3.08907C11.7545 2.9328 11.6668 2.72087 11.6668 2.4999C11.6668 2.27893 11.7545 2.06701 11.9108 1.91074ZM8.08908 10.2441C8.24531 10.4003 8.33307 10.6123 8.33307 10.8332C8.33307 11.0542 8.24531 11.2661 8.08908 11.4224L6.17825 13.3332H15.8333C16.0543 13.3332 16.2662 13.421 16.4225 13.5773C16.5788 13.7336 16.6666 13.9456 16.6666 14.1666C16.6666 14.3876 16.5788 14.5995 16.4225 14.7558C16.2662 14.9121 16.0543 14.9999 15.8333 14.9999H6.17825L8.08908 16.9107C8.24088 17.0679 8.32488 17.2784 8.32298 17.4969C8.32108 17.7154 8.23344 17.9244 8.07893 18.0789C7.92443 18.2334 7.71542 18.3211 7.49692 18.323C7.27842 18.3249 7.06792 18.2409 6.91075 18.0891L3.57742 14.7557C3.42119 14.5995 3.33343 14.3875 3.33343 14.1666C3.33343 13.9456 3.42119 13.7337 3.57742 13.5774L6.91075 10.2441C7.06703 10.0878 7.27895 10.0001 7.49992 10.0001C7.72089 10.0001 7.93281 10.0878 8.08908 10.2441Z" fill="black"/>
</svg>
